<?xml version="1.0" standalone="no"?>
<!DOCTYPE svg PUBLIC "-//W3C//DTD SVG 20010904//EN"
 "http://www.w3.org/TR/2001/REC-SVG-20010904/DTD/svg10.dtd">
<svg version="1.0" xmlns="http://www.w3.org/2000/svg"
 width="400.000000pt" height="400.000000pt" viewBox="0 0 400.000000 400.000000"
 preserveAspectRatio="xMidYMid meet">

<g transform="translate(0.000000,400.000000) scale(0.100000,-0.100000)"
fill="#000000" stroke="none">
<path d="M1790 3989 c-461 -48 -900 -263 -1226 -601 -163 -170 -265 -315 -364
-520 -225 -466 -260 -993 -99 -1491 68 -213 225 -499 333 -613 37 -38 48 -44
84 -44 34 0 50 7 79 33 31 29 36 40 37 79 1 38 -6 54 -49 114 -194 266 -308
557 -340 867 l-7 68 118 -3 118 -3 12 -85 c57 -416 282 -787 629 -1037 163
-118 409 -222 615 -260 149 -27 423 -25 564 5 246 53 455 148 642 294 l60 47
84 -84 c46 -47 82 -86 79 -88 -2 -2 -33 -26 -69 -53 -329 -255 -682 -376
-1094 -375 -376 0 -695 100 -1006 315 -81 57 -101 66 -139 66 -36 0 -49 -6
-77 -34 -29 -29 -34 -41 -34 -80 0 -58 22 -82 155 -171 800 -534 1873 -416
2541 277 163 170 265 315 364 520 329 681 244 1491 -219 2093 -71 92 -235 259
-330 334 -415 330 -936 483 -1461 430z m445 -240 c696 -85 1299 -619 1475
-1307 66 -262 70 -573 9 -837 -59 -257 -164 -478 -333 -695 -27 -36 -51 -67
-53 -69 -2 -3 -41 33 -88 79 l-84 84 47 60 c355 456 422 1091 170 1601 -275
554 -834 888 -1442 862 -232 -10 -431 -62 -636 -168 -143 -74 -206 -120 -227
-165 -15 -31 -16 -39 -3 -76 19 -53 55 -79 108 -80 33 0 57 10 123 52 145 93
305 156 470 185 46 8 90 15 97 15 9 0 12 -30 12 -119 l0 -118 -51 -6 c-28 -4
-89 -18 -137 -33 -447 -136 -752 -547 -752 -1013 0 -394 215 -752 563 -936
177 -94 283 -120 497 -120 127 0 181 5 235 19 326 84 572 280 718 571 88 177
135 450 90 526 -31 52 -61 59 -270 59 l-188 0 -23 68 c-34 97 -82 171 -161
245 -112 106 -243 157 -401 157 -170 0 -292 -51 -415 -175 -124 -123 -175
-245 -175 -415 0 -170 51 -292 175 -415 123 -123 246 -175 415 -175 102 0 185
20 218 53 51 52 35 149 -30 183 -28 15 -41 15 -113 4 -63 -10 -92 -10 -140 0
-280 57 -387 385 -195 594 80 87 207 129 322 106 199 -38 325 -221 290 -419
-14 -77 0 -120 50 -151 63 -40 143 -9 170 67 l12 33 118 0 118 0 -6 -27 c-39
-182 -101 -300 -223 -426 -111 -116 -231 -186 -386 -228 -112 -31 -297 -30
-410 0 -294 79 -517 302 -596 596 -30 112 -30 298 0 410 79 294 302 517 596
596 112 30 297 30 410 0 192 -51 309 -133 485 -338 60 -70 150 -66 194 8 39
66 1 143 -140 284 -147 147 -382 267 -567 290 l-57 7 0 119 0 120 53 -7 c363
-46 713 -269 916 -584 215 -333 263 -758 130 -1136 -126 -357 -428 -659 -782
-783 -342 -120 -730 -93 -1037 71 -429 229 -691 661 -692 1143 -1 266 61 485
202 704 42 66 52 90 52 123 -1 53 -27 89 -80 108 -37 13 -45 12 -76 -3 -20 -9
-51 -38 -70 -64 -42 -58 -134 -232 -170 -325 -32 -83 -73 -250 -83 -343 l-8
-70 -119 -3 -118 -3 7 63 c27 260 117 528 248 738 377 603 1033 915 1742 829z"/>
</g>
</svg>
